<svg xmlns="http://www.w3.org/2000/svg" viewBox="0 0 325 90.5"><defs><style>.cls-1{fill:none;stroke:#000;stroke-miterlimit:10;}</style></defs><g id="Layer_2" data-name="Layer 2"><g id="Layer_1-2" data-name="Layer 1"><path d="M83.56,21.59V61.81c0,.75.46,1.31,1.41,1.69a10,10,0,0,0,3.65.56h2.81v1.69H66.68V64.06H69.5a9.73,9.73,0,0,0,3.93-.56,1.81,1.81,0,0,0,1.13-1.69V41.28H41.37V61.81c0,.75.47,1.31,1.41,1.69a10,10,0,0,0,3.65.56h2.82v1.69H24.5V64.06h2.81a9.82,9.82,0,0,0,3.94-.56,1.82,1.82,0,0,0,1.12-1.69V21.59a1.82,1.82,0,0,0-1.12-1.69,9.82,9.82,0,0,0-3.94-.56H25.06V17.65H48.68v1.69H46.43a10,10,0,0,0-3.65.56c-.94.38-1.41.94-1.41,1.69v18H74.56v-18a1.81,1.81,0,0,0-1.13-1.69,9.73,9.73,0,0,0-3.93-.56H67.25V17.65H90.87v1.69H88.62A10,10,0,0,0,85,19.9C84,20.28,83.56,20.84,83.56,21.59Z"/><path d="M143.75,19.34h-1.69V17.65h20.25v1.69h-2.25a10.63,10.63,0,0,0-4.22.84,6.17,6.17,0,0,0-3.09,3.1L129.68,65.75h-3.37L105.5,23.28a5.29,5.29,0,0,0-2-3,7.45,7.45,0,0,0-4.22-1H96.5V17.65h24.18v1.69h-2.25c-1.88,0-3.09.28-3.65.84a1.93,1.93,0,0,0-.28,2.25l15.75,32.91h1.12l16.88-32.06c.74-1.31.74-2.3,0-3S146,19.34,143.75,19.34Z"/><path d="M184.68,27.34H171.75V25.65h45v1.69H203.81a10.09,10.09,0,0,0-3.66.56c-.94.38-1.4.94-1.4,1.69V69.81c0,.75.46,1.31,1.4,1.69a10.09,10.09,0,0,0,3.66.56h12.94v1.69h-45V72.06h12.93a9.75,9.75,0,0,0,3.94-.56,1.81,1.81,0,0,0,1.13-1.69V29.59a1.81,1.81,0,0,0-1.13-1.69A9.75,9.75,0,0,0,184.68,27.34Z"/><path d="M254.15,70.09q4.77,2,12.66,2a33.21,33.21,0,0,0,14.34-2.81q5.91-2.82,5.91-7V29.59a1.81,1.81,0,0,0-1.13-1.69,9.73,9.73,0,0,0-3.93-.56h-3.38V25.65h20.25v1.69H295.5a10.05,10.05,0,0,0-3.66.56c-.94.38-1.41.94-1.41,1.69V62.21q0,5.64-7.59,8.86a43.32,43.32,0,0,1-17.16,3.24A51,51,0,0,1,248,71.5q-7.6-2.82-7.6-9V29.59a1.82,1.82,0,0,0-1.12-1.69,9.82,9.82,0,0,0-3.94-.56H232.5V25.65h24.75v1.69h-2.82a10,10,0,0,0-3.65.56c-.94.38-1.41.94-1.41,1.69V62.5Q249.37,68.13,254.15,70.09Z"/><line class="cls-1" x1="10.31" y1="47.98" x2="10.5" y2="0.5"/><line class="cls-1" x1="166.81" y1="10.48" y2="10"/><line class="cls-1" x1="315.31" y1="43.98" x2="315" y2="90.5"/><line class="cls-1" x1="158.81" y1="81.48" x2="325" y2="81"/><line class="cls-1" x1="166.5" y1="0.5" x2="166.5" y2="90.5"/><line class="cls-1" x1="159" y1="90" x2="159"/></g></g></svg>