<?xml version="1.0" encoding="utf-8"?>
<!-- Generator: Adobe Illustrator 24.2.1, SVG Export Plug-In . SVG Version: 6.00 Build 0)  -->
<svg version="1.1" id="Layer_1" xmlns="http://www.w3.org/2000/svg" xmlns:xlink="http://www.w3.org/1999/xlink" x="0px" y="0px"
	 viewBox="0 0 325 90.5" style="enable-background:new 0 0 325 90.5;" xml:space="preserve">
<style type="text/css">
	.st0{fill:#FFFFFF;}
	.st1{fill:none;stroke:#FFFFFF;stroke-miterlimit:10;}
</style>
<path class="st0" d="M83.6,21.6v40.2c0,0.8,0.5,1.3,1.4,1.7c1.2,0.4,2.4,0.6,3.7,0.6h2.8v1.7H66.7v-1.7h2.8c1.3,0.1,2.7-0.1,3.9-0.6
	c0.7-0.3,1.1-0.9,1.1-1.7V41.3H41.4v20.5c0,0.8,0.5,1.3,1.4,1.7c1.2,0.4,2.4,0.6,3.7,0.6h2.8v1.7H24.5v-1.7h2.8
	c1.3,0.1,2.7-0.1,3.9-0.6c0.7-0.3,1.1-1,1.1-1.7V21.6c0-0.7-0.4-1.4-1.1-1.7c-1.3-0.5-2.6-0.6-3.9-0.6h-2.2v-1.7h23.6v1.7h-2.3
	c-1.2,0-2.5,0.1-3.7,0.6c-0.9,0.4-1.4,0.9-1.4,1.7v18h33.2v-18c0-0.7-0.4-1.4-1.1-1.7c-1.3-0.5-2.6-0.6-3.9-0.6h-2.3v-1.7h23.6v1.7
	h-2.3c-1.2,0-2.5,0.2-3.6,0.6C84,20.3,83.6,20.8,83.6,21.6z"/>
<path class="st0" d="M143.8,19.3h-1.7v-1.7h20.3v1.7h-2.3c-1.4,0-2.9,0.3-4.2,0.8c-1.4,0.6-2.5,1.7-3.1,3.1l-23.1,42.5h-3.4
	l-20.8-42.5c-0.3-1.2-1-2.3-2-3c-1.3-0.7-2.7-1.1-4.2-1h-2.8v-1.6h24.2v1.7h-2.3c-1.9,0-3.1,0.3-3.7,0.8c-0.6,0.6-0.7,1.5-0.3,2.3
	l15.8,32.9h1.1l16.9-32.1c0.7-1.3,0.7-2.3,0-3S146,19.3,143.8,19.3z"/>
<path class="st0" d="M184.7,27.3h-12.9v-1.7h45v1.7h-12.9c-1.2,0-2.5,0.1-3.7,0.6c-0.9,0.4-1.4,0.9-1.4,1.7v40.2
	c0,0.8,0.5,1.3,1.4,1.7c1.2,0.4,2.4,0.6,3.7,0.6h12.9v1.7h-45v-1.7h12.9c1.3,0.1,2.7-0.1,3.9-0.6c0.7-0.3,1.1-0.9,1.1-1.7V29.6
	c0-0.7-0.4-1.4-1.1-1.7C187.4,27.4,186,27.3,184.7,27.3z"/>
<path class="st0" d="M254.1,70.1c3.2,1.3,7.4,2,12.7,2c4.9,0.1,9.8-0.8,14.3-2.8c3.9-1.9,5.9-4.2,5.9-7V29.6c0-0.7-0.4-1.4-1.1-1.7
	c-1.3-0.5-2.6-0.6-3.9-0.6h-3.4v-1.7h20.3v1.7h-3.4c-1.2,0-2.5,0.1-3.7,0.6c-0.9,0.4-1.4,0.9-1.4,1.7v32.6c0,3.8-2.5,6.7-7.6,8.9
	c-5.4,2.2-11.3,3.3-17.2,3.2c-6,0.1-12-0.8-17.7-2.8c-5.1-1.9-7.6-4.9-7.6-9V29.6c0-0.7-0.4-1.4-1.1-1.7c-1.3-0.5-2.6-0.6-3.9-0.6
	h-2.8v-1.7h24.8v1.7h-2.8c-1.2,0-2.5,0.1-3.6,0.6c-0.9,0.4-1.4,0.9-1.4,1.7v32.9C249.4,66.3,251,68.8,254.1,70.1z"/>
<line class="st1" x1="10.3" y1="48" x2="10.5" y2="0.5"/>
<line class="st1" x1="166.8" y1="10.5" x2="0" y2="10"/>
<line class="st1" x1="315.3" y1="44" x2="315" y2="90.5"/>
<line class="st1" x1="158.8" y1="81.5" x2="325" y2="81"/>
<line class="st1" x1="166.5" y1="0.5" x2="166.5" y2="90.5"/>
<line class="st1" x1="159" y1="90" x2="159" y2="0"/>
</svg>
