<svg xmlns="http://www.w3.org/2000/svg" viewBox="0 0 31.5 49.22"><g id="Layer_2" data-name="Layer 2"><g id="Layer_1-2" data-name="Layer 1"><path d="M16.17,36.84A5.75,5.75,0,0,1,12.66,38Q11,38,9.42,35.72T7.88,29a29.83,29.83,0,0,1,3.37-13.08Q14.63,9,18.84,9a2.87,2.87,0,0,1,1.83.56,3.05,3.05,0,0,1,1,1.69l.56-2.53h3.09L22.78,26.44c-.19,1.5-.38,2.81-.56,3.94a16.38,16.38,0,0,0-.28,2.53,2.77,2.77,0,0,0,.42,1.68,1.21,1.21,0,0,0,1,.57c1.5,0,2.82-1.31,3.94-3.94S29,25,29,20.53q0-11.25-3.8-14.9T17.16,2Q12.09,2,8,7.17T3.94,25q0,11,3.37,16.45t9,5.49a12.74,12.74,0,0,0,7.46-2.25A17.58,17.58,0,0,0,29.25,38l2,.56a21.28,21.28,0,0,1-6.47,8.16,14.45,14.45,0,0,1-8.44,2.53Q9,49.22,4.5,42.33T0,25Q0,13.51,5.06,6.75T17.16,0A13.07,13.07,0,0,1,27.28,4.78q4.21,4.78,4.22,15.47c0,5.63-.94,10-2.81,13.08S24.75,38,22.5,38a3,3,0,0,1-2.39-1.13,6.6,6.6,0,0,1-1.27-3.65A8.73,8.73,0,0,1,16.17,36.84Zm-4.08-2.25a1.8,1.8,0,0,0,1.69,1.13,3.92,3.92,0,0,0,3.1-2,16.41,16.41,0,0,0,2.25-5.91l2-13.78a3,3,0,0,0-.42-2.53,2.28,2.28,0,0,0-1.83-.84q-2,0-4.64,5.76T11.53,30.94A8.73,8.73,0,0,0,12.09,34.59Z"/></g></g></svg>